<svg xmlns="http://www.w3.org/2000/svg" xmlns:xlink="http://www.w3.org/1999/xlink" width="67.8" height="77.44" viewBox="0 0 67.8 77.44">
  <defs>
    <linearGradient id="linear-gradient" x1="2131.778" y1="-27.795" x2="2131.489" y2="-26.263" gradientUnits="objectBoundingBox">
      <stop offset="0" stop-color="#fff"/>
      <stop offset="1" stop-color="#d3dcdb"/>
    </linearGradient>
    <linearGradient id="linear-gradient-2" x1="648.222" y1="-6.784" x2="647.885" y2="-5.255" xlink:href="#linear-gradient"/>
    <linearGradient id="linear-gradient-3" x1="464.025" y1="-3.904" x2="463.611" y2="-2.378" xlink:href="#linear-gradient"/>
    <linearGradient id="linear-gradient-4" x1="4.58" y1="-28.105" x2="4.329" y2="-26.569" xlink:href="#linear-gradient"/>
    <linearGradient id="linear-gradient-5" x1="1.956" y1="-6.833" x2="1.624" y2="-5.303" xlink:href="#linear-gradient"/>
    <linearGradient id="linear-gradient-6" x1="1.595" y1="-3.925" x2="1.181" y2="-2.399" xlink:href="#linear-gradient"/>
  </defs>
  <g id="bunny-santa" transform="translate(-2561 -4035)">
    <rect id="Rectangle_50" data-name="Rectangle 50" width="67.8" height="77.44" transform="translate(2561 4035)" fill="#fff" opacity="0"/>
    <g id="astonished-santa-claus-face-by-Vexels" transform="translate(2380.594 3985)">
      <path id="Path_524" data-name="Path 524" d="M211.426,168.616a25,25,0,0,1-.734-3.232c-.339-1.238-.677-2.48-.914-3.743-.407-2.14-4.748-4.777-3.149-6.566a23.9,23.9,0,0,1,3.008-2.72c1.951-1.556,4.147-9.212,6.086-10.783,1.516-1.225,6.447-2.534,8.425-2.807,2.567-.352,10.739-.658,14.181-.81,1.322-.059,4.828-1.786,6.144-1.995a9.128,9.128,0,0,0,4.413-1.471c1.153-.833,1.682-1.874,3.174-.153,1.454,1.676,3.782,2.117,2.564,3.311a17.975,17.975,0,0,1-5.111,3.087c-4.036,1.909-4.6,5.572-2.1,9.132a17.457,17.457,0,0,0,2.484,2.012,21.885,21.885,0,0,1,2.929,2.643c1.632,1.732,1.773,3.478,1.2,5.833-.657,2.687-6.523,6.329-6.5,9.2a.436.436,0,0,0-.108-.256" transform="translate(-19.401 -77.534)" fill="#e30613"/>
      <path id="Path_525" data-name="Path 525" d="M287.546,374.41c0,9.072-9.315,16.424-20.8,16.423s-20.8-7.356-20.795-16.428,9.314-16.421,20.8-16.419S287.546,365.34,287.546,374.41Z" transform="translate(-56.282 -286.302)" fill="#f0f0f0"/>
      <g id="Group_182" data-name="Group 182" transform="translate(226.013 85.942)">
        <path id="Path_526" data-name="Path 526" d="M769.375,564.039a3.578,3.578,0,1,1-3.575-3.5A3.538,3.538,0,0,1,769.375,564.039Z" transform="translate(-762.221 -560.538)" fill="#fee1b9"/>
        <path id="Path_527" data-name="Path 527" d="M781.144,580.8A2.346,2.346,0,1,1,778.8,578.5,2.321,2.321,0,0,1,781.144,580.8Z" transform="translate(-775.451 -577.237)" fill="#fbc78e"/>
      </g>
      <g id="Group_183" data-name="Group 183" transform="translate(189.029 85.938)">
        <path id="Path_528" data-name="Path 528" d="M244.03,563.972a3.578,3.578,0,1,1-3.577-3.5A3.54,3.54,0,0,1,244.03,563.972Z" transform="translate(-236.876 -560.471)" fill="#fee1b9"/>
        <path id="Path_529" data-name="Path 529" d="M255.769,580.726a2.346,2.346,0,1,1-2.344-2.294A2.319,2.319,0,0,1,255.769,580.726Z" transform="translate(-250.078 -577.168)" fill="#fbc78e"/>
      </g>
      <path id="Path_530" data-name="Path 530" d="M266.319,472.337c.1-.13.2-.26.3-.4,1.906-2.651,2.551-5.355,6.131-6.316a30.076,30.076,0,0,1,12.338-.7,13.655,13.655,0,0,1,6.118,2.349c2.169,1.648,2.256,4.041,3.94,6.02a7.149,7.149,0,0,0,1.915,1.4c1.73,1.155,1.571,2.753,1.705,4.511.151,1.977.151,3.826-1.313,5.442a3.583,3.583,0,0,1-1.689.75c-3.614,1.032-7.663,1.074-11.393,1.174a88.49,88.49,0,0,1-14.535-.665c-2.561-.357-7.464-.775-9.03-3.264-.643-1.024-.32-1.882.258-2.847.792-1.315,1.083-2.807,2.066-4.077C264.081,474.491,265.343,473.538,266.319,472.337Z" transform="translate(-69.765 -385.391)" fill="#fee1b9"/>
      <path id="Path_531" data-name="Path 531" d="M197.019,517.006s2.262,3.915.241,4.778-4.523,2.123-4.039,4.247,2.991,4.578,4.928,4.712a65.958,65.958,0,0,0,7.911-.729s-.159-2.589,5.252-1.125,2.745,1.989,5.572,1.857a48.789,48.789,0,0,0,6.863-1.06s4.444-4.78,3.879-5.973-2.826-1.527-3.394-2.989-1.369-3.848-.322-3.78,2.18,1.991,3.313,2.656,3.874,3.518,3.552,5.109c0,0,7.172,5.094,7.561,12,.341,6.073-4.026,24.8-26.66,24.8-22.514,0-32.627-23.893-22.085-34.153,3.042-2.961.481-1.593,2.745-4.643S194.757,516.739,197.019,517.006Z" transform="translate(0 -434.069)" fill="#f0f0f0"/>
      <g id="Group_184" data-name="Group 184" transform="translate(206.728 97.47)">
        <path id="Path_532" data-name="Path 532" d="M488.278,734.633s4.487,10.373,8.523-.149c0,0-1.9-3.03-4.187-3.107S488.734,733.65,488.278,734.633Z" transform="translate(-488.278 -730.875)" fill="#fee1b9"/>
        <path id="Path_533" data-name="Path 533" d="M497.355,726.989s3.733,8.627,7.089-.125c0,0-1.581-2.52-3.481-2.583S497.735,726.17,497.355,726.989Z" transform="translate(-496.716 -724.28)" fill="#600b00"/>
      </g>
      <g id="Group_185" data-name="Group 185" transform="translate(197.717 79.196)">
        <path id="Path_534" data-name="Path 534" d="M368.867,466.728c.012-2.376-5.918-2.559-7.734-1.056-.9.745-1.561,2.95.532,3.173,1.221.13,1.274-.458,2.142-.8a5.37,5.37,0,0,1,2.241-.261c2.03,0,3.3-.125,2.678-1.673" transform="translate(-360.276 -464.708)" fill="#f0f0f0"/>
        <path id="Path_535" data-name="Path 535" d="M480.294,484.638c.011.029.019.056.029.085l-.022-.052Z" transform="translate(-471.845 -483.235)" fill="url(#linear-gradient)"/>
        <path id="Path_536" data-name="Path 536" d="M480.8,486.186a2.123,2.123,0,0,0-.1-.338A1.312,1.312,0,0,1,480.8,486.186Z" transform="translate(-472.231 -484.36)" fill="url(#linear-gradient-2)"/>
        <path id="Path_537" data-name="Path 537" d="M480.4,485.112l.022.052a2.12,2.12,0,0,1,.1.338,1.777,1.777,0,0,1,.017.194Z" transform="translate(-471.945 -483.676)" fill="url(#linear-gradient-3)"/>
      </g>
      <path id="Path_538" data-name="Path 538" d="M349.118,666.215a5.723,5.723,0,0,0-1.114-.6c-.569-.218-1.394.079-1.753-.049.77.278.624,1.024.145,1.4-1.287.992-4.237-1.223-5.807-1.165-2.039.079-2.992,1.346-4.653,2.117a10.084,10.084,0,0,1-1.531.633,10.182,10.182,0,0,1-1.534-.633c-1.139-1.026-3.734-2.871-6.729-1.8-4.039,1.444-3.879,3.132-5.332,2.327s.312-2.679-.161-2.328c-1.937,1.444-3.151,3.453-1.777,4.819,1.723,1.714,3.66,3.319,6.145,3.725a7.831,7.831,0,0,0,5.24-1.108c1.1-.651,1.906-1.8,3.04-2.444,1.566-.885,2.324.008,3.381,1.062a9.542,9.542,0,0,0,1.762,1.314,8.381,8.381,0,0,0,3.282,1.21c2.858.373,7.174-1.55,8.5-4.22a3.239,3.239,0,0,0-.21-3.474A4.574,4.574,0,0,0,349.118,666.215Z" transform="translate(-123.524 -572.201)" fill="#f0f0f0"/>
      <path id="Path_539" data-name="Path 539" d="M475.862,606.545c0,2.219-2.677,4.016-5.977,4.016s-5.975-1.8-5.975-4.017,2.675-4.016,5.977-4.015S475.863,604.326,475.862,606.545Z" transform="translate(-258.898 -513.63)" fill="#fbc78e"/>
      <g id="Group_186" data-name="Group 186" transform="translate(215.123 79.022)">
        <path id="Path_540" data-name="Path 540" d="M607.544,464.258c-.016-2.377,5.915-2.555,7.733-1.053.9.746,1.561,2.95-.532,3.172-1.221.132-1.276-.457-2.144-.8a5.358,5.358,0,0,0-2.24-.259c-2.031,0-3.3-.128-2.674-1.676" transform="translate(-607.527 -462.24)" fill="#f0f0f0"/>
        <path id="Path_541" data-name="Path 541" d="M609.369,482.152c-.016.031-.021.057-.033.085.008-.015.016-.035.024-.053Z" transform="translate(-609.209 -480.75)" fill="url(#linear-gradient-4)"/>
        <path id="Path_542" data-name="Path 542" d="M607.953,483.695a2.643,2.643,0,0,1,.1-.338A1.433,1.433,0,0,0,607.953,483.695Z" transform="translate(-607.923 -481.87)" fill="url(#linear-gradient-5)"/>
        <path id="Path_543" data-name="Path 543" d="M607.906,482.6c-.009.018-.016.038-.024.053a2.665,2.665,0,0,0-.1.338,1.321,1.321,0,0,0-.013.194Z" transform="translate(-607.754 -481.169)" fill="url(#linear-gradient-6)"/>
      </g>
      <g id="Group_187" data-name="Group 187" transform="translate(217.282 85.512)">
        <path id="Path_544" data-name="Path 544" d="M638.4,558.037s-1.005-3.005,1.427-3.608c0,0,2.319-.011,1.818,3.1,0,0,.166,1.739-2.109,1.641C639.532,559.173,638.822,559.119,638.4,558.037Z" transform="translate(-638.19 -554.429)" fill="#600b00"/>
        <path id="Path_545" data-name="Path 545" d="M656.374,589.756a.768.768,0,0,1-.858.682.8.8,0,0,1-.583-.951.768.768,0,0,1,.858-.68A.8.8,0,0,1,656.374,589.756Z" transform="translate(-653.742 -586.375)" fill="#f0f0f0"/>
      </g>
      <g id="Group_188" data-name="Group 188" transform="translate(201.45 85.511)">
        <path id="Path_546" data-name="Path 546" d="M416.62,558.012s1.006-3.005-1.426-3.608c0,0-2.318-.012-1.819,3.1,0,0-.167,1.74,2.109,1.642C415.484,559.148,416.194,559.093,416.62,558.012Z" transform="translate(-413.305 -554.404)" fill="#600b00"/>
        <path id="Path_547" data-name="Path 547" d="M425.77,589.722a.769.769,0,0,0,.858.681.8.8,0,0,0,.583-.95.768.768,0,0,0-.858-.681A.8.8,0,0,0,425.77,589.722Z" transform="translate(-424.88 -586.342)" fill="#f0f0f0"/>
      </g>
      <path id="Path_548" data-name="Path 548" d="M774.18,67.331a8.69,8.69,0,1,1,9.626-7.7A8.7,8.7,0,0,1,774.18,67.331Z" transform="translate(-540.078 0)" fill="#f0f0f0"/>
    </g>
  </g>
</svg>
